<svg width="3840" height="1088" viewBox="0 0 3840 1088" fill="none" xmlns="http://www.w3.org/2000/svg">
<g clip-path="url(#clip0_371_197)">
<mask id="path-1-outside-1_371_197" maskUnits="userSpaceOnUse" x="1354.45" y="282.348" width="1891" height="493" fill="black">
<rect fill="white" x="1354.45" y="282.348" width="1891" height="493"/>
<path d="M1364.45 595.323C1364.45 571.785 1368.7 549.999 1377.22 529.967C1386.23 509.434 1398.25 491.655 1413.27 476.63C1428.8 461.105 1446.83 449.086 1467.36 440.572C1487.9 431.557 1509.68 427.05 1532.72 427.05C1556.26 427.05 1578.04 431.557 1598.07 440.572C1618.61 449.086 1636.64 461.105 1652.16 476.63C1667.69 491.655 1679.71 509.434 1688.22 529.967C1697.24 549.999 1701.74 571.785 1701.74 595.323V764.348H1634.88V595.323C1634.88 581.3 1632.13 568.279 1626.62 556.26C1621.61 543.739 1614.35 532.972 1604.84 523.957C1595.82 514.442 1585.05 507.18 1572.53 502.172C1560.01 496.663 1546.74 493.908 1532.72 493.908C1518.7 493.908 1505.42 496.663 1492.9 502.172C1480.88 507.18 1470.12 514.442 1460.6 523.957C1451.59 532.972 1444.33 543.739 1438.82 556.26C1433.81 568.279 1431.3 581.3 1431.3 595.323V764.348H1364.45V595.323ZM2018.39 644.904L2065.72 692.231L2042.43 715.518C2026.41 731.544 2008.13 743.814 1987.59 752.328C1967.06 760.842 1945.53 765.099 1922.99 765.099C1900.45 765.099 1878.92 760.842 1858.38 752.328C1837.85 743.814 1819.57 731.544 1803.55 715.518C1787.02 698.991 1774.75 680.461 1766.74 659.928C1758.72 638.894 1754.72 617.609 1754.72 596.074C1754.72 574.539 1758.72 553.505 1766.74 532.972C1774.75 512.438 1787.02 493.908 1803.55 477.382C1820.07 460.855 1838.6 448.585 1859.14 440.572C1880.17 432.058 1901.45 427.801 1922.99 427.801C1944.52 427.801 1965.56 432.058 1986.09 440.572C2007.13 448.585 2025.91 460.855 2042.43 477.382L2065.72 500.669L1878.67 687.723C1897.7 697.239 1917.73 700.494 1938.76 697.489C1960.3 693.983 1979.08 684.218 1995.11 668.191L2018.39 644.904ZM1850.87 523.957C1830.84 543.99 1820.82 568.029 1820.82 596.074C1820.82 611.6 1824.33 626.374 1831.34 640.396C1837.35 634.387 1846.36 625.372 1858.38 613.352C1870.9 600.832 1883.93 587.811 1897.45 574.289C1911.47 560.266 1924.74 546.995 1937.26 534.474C1950.28 521.954 1960.3 512.188 1967.31 505.177C1948.28 495.661 1928 492.406 1906.46 495.411C1885.43 498.416 1866.9 507.931 1850.87 523.957ZM2727.03 427.05V595.323C2727.03 618.361 2722.52 640.146 2713.51 660.679C2704.99 681.213 2692.97 699.242 2677.45 714.767C2661.92 730.292 2643.89 742.562 2623.36 751.577C2603.33 760.091 2581.54 764.348 2558.01 764.348C2530.46 764.348 2504.92 758.338 2481.38 746.318C2457.84 733.798 2438.31 717.021 2422.79 695.987C2407.26 717.021 2387.73 733.798 2364.19 746.318C2341.15 758.338 2315.61 764.348 2287.57 764.348C2264.53 764.348 2242.74 760.091 2222.21 751.577C2201.68 742.562 2183.65 730.292 2168.12 714.767C2152.6 699.242 2140.33 681.213 2131.31 660.679C2122.8 640.146 2118.54 618.361 2118.54 595.323V427.05H2186.15V595.323C2186.15 609.346 2188.66 622.617 2193.66 635.138C2199.17 647.658 2206.43 658.676 2215.45 668.191C2224.96 677.206 2235.73 684.468 2247.75 689.977C2260.27 694.985 2273.54 697.489 2287.57 697.489C2301.59 697.489 2314.86 694.985 2327.38 689.977C2339.9 684.468 2350.67 677.206 2359.68 668.191C2369.2 658.676 2376.46 647.658 2381.47 635.138C2386.98 622.617 2389.73 609.346 2389.73 595.323V427.05H2456.59V595.323C2456.59 609.346 2459.09 622.617 2464.1 635.138C2469.61 647.658 2476.87 658.676 2485.89 668.191C2495.4 677.206 2506.17 684.468 2518.19 689.977C2530.71 694.985 2543.98 697.489 2558.01 697.489C2572.03 697.489 2585.3 694.985 2597.82 689.977C2610.34 684.468 2621.11 677.206 2630.12 668.191C2639.64 658.676 2646.9 647.658 2651.91 635.138C2657.42 622.617 2660.17 609.346 2660.17 595.323V427.05H2727.03ZM2949.99 427.801C2973.53 427.801 2995.31 432.308 3015.35 441.323C3035.88 449.837 3053.66 461.856 3068.68 477.382C3084.21 492.406 3096.23 510.185 3104.74 530.718C3113.76 550.751 3118.26 572.536 3118.26 596.074C3118.26 619.112 3113.76 640.897 3104.74 661.43C3096.23 681.964 3084.21 699.993 3068.68 715.518C3053.66 731.044 3035.88 743.313 3015.35 752.328C2995.31 760.842 2973.53 765.099 2949.99 765.099C2926.95 765.099 2905.17 760.842 2884.63 752.328C2864.1 743.313 2846.07 731.044 2830.55 715.518C2815.02 699.993 2802.75 681.964 2793.74 661.43C2785.22 640.897 2780.96 619.112 2780.96 596.074V292.581H2847.82V427.801H2949.99ZM2949.99 698.24C2964.01 698.24 2977.03 695.736 2989.05 690.728C3001.57 685.219 3012.34 677.957 3021.36 668.943C3030.87 659.427 3038.13 648.409 3043.14 635.889C3048.65 623.369 3051.4 610.097 3051.4 596.074C3051.4 582.052 3048.65 569.03 3043.14 557.011C3038.13 544.491 3030.87 533.723 3021.36 524.708C3012.34 515.193 3001.57 507.931 2989.05 502.923C2977.03 497.414 2964.01 494.66 2949.99 494.66H2847.82V596.074C2847.82 610.097 2850.33 623.369 2855.34 635.889C2860.84 648.409 2868.11 659.427 2877.12 668.943C2886.64 677.957 2897.65 685.219 2910.17 690.728C2922.69 695.736 2935.97 698.24 2949.99 698.24ZM3169.03 426.299H3235.14V763.596H3169.03V426.299Z"/>
</mask>
<path d="M1364.45 595.323C1364.45 571.785 1368.7 549.999 1377.22 529.967C1386.23 509.434 1398.25 491.655 1413.27 476.63C1428.8 461.105 1446.83 449.086 1467.36 440.572C1487.9 431.557 1509.68 427.05 1532.72 427.05C1556.26 427.05 1578.04 431.557 1598.07 440.572C1618.61 449.086 1636.64 461.105 1652.16 476.63C1667.69 491.655 1679.71 509.434 1688.22 529.967C1697.24 549.999 1701.74 571.785 1701.74 595.323V764.348H1634.88V595.323C1634.88 581.3 1632.13 568.279 1626.62 556.26C1621.61 543.739 1614.35 532.972 1604.84 523.957C1595.82 514.442 1585.05 507.18 1572.53 502.172C1560.01 496.663 1546.74 493.908 1532.72 493.908C1518.7 493.908 1505.42 496.663 1492.9 502.172C1480.88 507.18 1470.12 514.442 1460.6 523.957C1451.59 532.972 1444.33 543.739 1438.82 556.26C1433.81 568.279 1431.3 581.3 1431.3 595.323V764.348H1364.45V595.323ZM2018.39 644.904L2065.72 692.231L2042.43 715.518C2026.41 731.544 2008.13 743.814 1987.59 752.328C1967.06 760.842 1945.53 765.099 1922.99 765.099C1900.45 765.099 1878.92 760.842 1858.38 752.328C1837.85 743.814 1819.57 731.544 1803.55 715.518C1787.02 698.991 1774.75 680.461 1766.74 659.928C1758.72 638.894 1754.72 617.609 1754.72 596.074C1754.72 574.539 1758.72 553.505 1766.74 532.972C1774.75 512.438 1787.02 493.908 1803.55 477.382C1820.07 460.855 1838.6 448.585 1859.14 440.572C1880.17 432.058 1901.45 427.801 1922.99 427.801C1944.52 427.801 1965.56 432.058 1986.09 440.572C2007.13 448.585 2025.91 460.855 2042.43 477.382L2065.72 500.669L1878.67 687.723C1897.7 697.239 1917.73 700.494 1938.76 697.489C1960.3 693.983 1979.08 684.218 1995.11 668.191L2018.39 644.904ZM1850.87 523.957C1830.84 543.99 1820.82 568.029 1820.82 596.074C1820.82 611.6 1824.33 626.374 1831.34 640.396C1837.35 634.387 1846.36 625.372 1858.38 613.352C1870.9 600.832 1883.93 587.811 1897.45 574.289C1911.47 560.266 1924.74 546.995 1937.26 534.474C1950.28 521.954 1960.3 512.188 1967.31 505.177C1948.28 495.661 1928 492.406 1906.46 495.411C1885.43 498.416 1866.9 507.931 1850.87 523.957ZM2727.03 427.05V595.323C2727.03 618.361 2722.52 640.146 2713.51 660.679C2704.99 681.213 2692.97 699.242 2677.45 714.767C2661.92 730.292 2643.89 742.562 2623.36 751.577C2603.33 760.091 2581.54 764.348 2558.01 764.348C2530.46 764.348 2504.92 758.338 2481.38 746.318C2457.84 733.798 2438.31 717.021 2422.79 695.987C2407.26 717.021 2387.73 733.798 2364.19 746.318C2341.15 758.338 2315.61 764.348 2287.57 764.348C2264.53 764.348 2242.74 760.091 2222.21 751.577C2201.68 742.562 2183.65 730.292 2168.12 714.767C2152.6 699.242 2140.33 681.213 2131.31 660.679C2122.8 640.146 2118.54 618.361 2118.54 595.323V427.05H2186.15V595.323C2186.15 609.346 2188.66 622.617 2193.66 635.138C2199.17 647.658 2206.43 658.676 2215.45 668.191C2224.96 677.206 2235.73 684.468 2247.75 689.977C2260.27 694.985 2273.54 697.489 2287.57 697.489C2301.59 697.489 2314.86 694.985 2327.38 689.977C2339.9 684.468 2350.67 677.206 2359.68 668.191C2369.2 658.676 2376.46 647.658 2381.47 635.138C2386.98 622.617 2389.73 609.346 2389.73 595.323V427.05H2456.59V595.323C2456.59 609.346 2459.09 622.617 2464.1 635.138C2469.61 647.658 2476.87 658.676 2485.89 668.191C2495.4 677.206 2506.17 684.468 2518.19 689.977C2530.71 694.985 2543.98 697.489 2558.01 697.489C2572.03 697.489 2585.3 694.985 2597.82 689.977C2610.34 684.468 2621.11 677.206 2630.12 668.191C2639.64 658.676 2646.9 647.658 2651.91 635.138C2657.42 622.617 2660.17 609.346 2660.17 595.323V427.05H2727.03ZM2949.99 427.801C2973.53 427.801 2995.31 432.308 3015.35 441.323C3035.88 449.837 3053.66 461.856 3068.68 477.382C3084.21 492.406 3096.23 510.185 3104.74 530.718C3113.76 550.751 3118.26 572.536 3118.26 596.074C3118.26 619.112 3113.76 640.897 3104.74 661.43C3096.23 681.964 3084.21 699.993 3068.68 715.518C3053.66 731.044 3035.88 743.313 3015.35 752.328C2995.31 760.842 2973.53 765.099 2949.99 765.099C2926.95 765.099 2905.17 760.842 2884.63 752.328C2864.1 743.313 2846.07 731.044 2830.55 715.518C2815.02 699.993 2802.75 681.964 2793.74 661.43C2785.22 640.897 2780.96 619.112 2780.96 596.074V292.581H2847.82V427.801H2949.99ZM2949.99 698.24C2964.01 698.24 2977.03 695.736 2989.05 690.728C3001.57 685.219 3012.34 677.957 3021.36 668.943C3030.87 659.427 3038.13 648.409 3043.14 635.889C3048.65 623.369 3051.4 610.097 3051.4 596.074C3051.4 582.052 3048.65 569.03 3043.14 557.011C3038.13 544.491 3030.87 533.723 3021.36 524.708C3012.34 515.193 3001.57 507.931 2989.05 502.923C2977.03 497.414 2964.01 494.66 2949.99 494.66H2847.82V596.074C2847.82 610.097 2850.33 623.369 2855.34 635.889C2860.84 648.409 2868.11 659.427 2877.12 668.943C2886.64 677.957 2897.65 685.219 2910.17 690.728C2922.69 695.736 2935.97 698.24 2949.99 698.24ZM3169.03 426.299H3235.14V763.596H3169.03V426.299Z" fill="white"/>
<path d="M1377.22 529.967L1368.56 526.169L1368.54 526.22L1368.52 526.271L1377.22 529.967ZM1413.27 476.63L1419.96 483.312L1419.96 483.312L1413.27 476.63ZM1467.36 440.572L1470.98 449.3L1471.07 449.263L1471.16 449.223L1467.36 440.572ZM1598.07 440.572L1594.2 449.188L1594.33 449.246L1594.46 449.3L1598.07 440.572ZM1652.16 476.63L1645.48 483.312L1645.54 483.366L1645.59 483.42L1652.16 476.63ZM1688.22 529.967L1679.49 533.586L1679.55 533.716L1679.6 533.844L1688.22 529.967ZM1701.74 764.348V773.796H1711.19V764.348H1701.74ZM1634.88 764.348H1625.44V773.796H1634.88V764.348ZM1626.62 556.26L1617.85 559.769L1617.93 559.985L1618.03 560.197L1626.62 556.26ZM1604.84 523.957L1597.98 530.455L1598.15 530.641L1598.34 530.816L1604.84 523.957ZM1572.53 502.172L1568.73 510.82L1568.87 510.885L1569.02 510.945L1572.53 502.172ZM1492.9 502.172L1496.54 510.894L1496.62 510.858L1496.71 510.82L1492.9 502.172ZM1460.6 523.957L1453.92 517.276L1453.92 517.276L1460.6 523.957ZM1438.82 556.26L1430.17 552.454L1430.13 552.54L1430.09 552.626L1438.82 556.26ZM1431.3 764.348V773.796H1440.75V764.348H1431.3ZM1364.45 764.348H1355V773.796H1364.45V764.348ZM1364.45 595.323H1373.89C1373.89 572.95 1377.93 552.434 1385.91 533.663L1377.22 529.967L1368.52 526.271C1359.47 547.565 1355 570.619 1355 595.323H1364.45ZM1377.22 529.967L1385.87 533.765C1394.44 514.247 1405.81 497.46 1419.96 483.312L1413.27 476.63L1406.59 469.949C1390.69 485.849 1378.02 504.621 1368.56 526.169L1377.22 529.967ZM1413.27 476.63L1419.96 483.312C1434.59 468.674 1451.58 457.345 1470.98 449.3L1467.36 440.572L1463.74 431.844C1442.08 440.826 1423.01 453.536 1406.59 469.949L1413.27 476.63ZM1467.36 440.572L1471.16 449.223C1490.46 440.749 1510.95 436.498 1532.72 436.498V427.05V417.601C1508.41 417.601 1485.33 422.365 1463.56 431.92L1467.36 440.572ZM1532.72 427.05V436.498C1555.02 436.498 1575.47 440.761 1594.2 449.188L1598.07 440.572L1601.95 431.955C1580.62 422.354 1557.5 417.601 1532.72 417.601V427.05ZM1598.07 440.572L1594.46 449.3C1613.86 457.345 1630.84 468.674 1645.48 483.312L1652.16 476.63L1658.84 469.949C1642.43 453.536 1623.36 440.826 1601.69 431.844L1598.07 440.572ZM1652.16 476.63L1645.59 483.42C1660.16 497.52 1671.46 514.211 1679.49 533.586L1688.22 529.967L1696.95 526.348C1687.96 504.657 1675.21 485.789 1658.73 469.84L1652.16 476.63ZM1688.22 529.967L1679.6 533.844C1688.03 552.572 1692.29 573.025 1692.29 595.323H1701.74H1711.19C1711.19 570.545 1706.44 547.427 1696.84 526.09L1688.22 529.967ZM1701.74 595.323H1692.29V764.348H1701.74H1711.19V595.323H1701.74ZM1701.74 764.348V754.899H1634.88V764.348V773.796H1701.74V764.348ZM1634.88 764.348H1644.33V595.323H1634.88H1625.44V764.348H1634.88ZM1634.88 595.323H1644.33C1644.33 580.025 1641.32 565.652 1635.21 552.323L1626.62 556.26L1618.03 560.197C1622.94 570.907 1625.44 582.575 1625.44 595.323H1634.88ZM1626.62 556.26L1635.39 552.751C1629.89 539 1621.87 527.079 1611.33 517.098L1604.84 523.957L1598.34 530.816C1606.83 538.864 1613.33 548.479 1617.85 559.769L1626.62 556.26ZM1604.84 523.957L1611.7 517.459C1601.71 506.923 1589.79 498.899 1576.04 493.399L1572.53 502.172L1569.02 510.945C1580.31 515.461 1589.93 521.96 1597.98 530.455L1604.84 523.957ZM1572.53 502.172L1576.34 493.523C1562.59 487.473 1548.02 484.46 1532.72 484.46V493.908V503.357C1545.47 503.357 1557.44 505.853 1568.73 510.82L1572.53 502.172ZM1532.72 493.908V484.46C1517.42 484.46 1502.85 487.473 1489.1 493.523L1492.9 502.172L1496.71 510.82C1508 505.853 1519.97 503.357 1532.72 503.357V493.908ZM1492.9 502.172L1489.27 493.45C1476.07 498.949 1464.28 506.918 1453.92 517.276L1460.6 523.957L1467.28 530.638C1475.96 521.966 1485.7 515.411 1496.54 510.894L1492.9 502.172ZM1460.6 523.957L1453.92 517.276C1444.02 527.178 1436.11 538.941 1430.17 552.454L1438.82 556.26L1447.46 560.065C1452.54 548.538 1459.16 538.766 1467.28 530.638L1460.6 523.957ZM1438.82 556.26L1430.09 552.626C1424.57 565.883 1421.86 580.15 1421.86 595.323H1431.3H1440.75C1440.75 582.451 1443.05 570.676 1447.54 559.894L1438.82 556.26ZM1431.3 595.323H1421.86V764.348H1431.3H1440.75V595.323H1431.3ZM1431.3 764.348V754.899H1364.45V764.348V773.796H1431.3V764.348ZM1364.45 764.348H1373.89V595.323H1364.45H1355V764.348H1364.45ZM2018.39 644.904L2025.08 638.222L2018.39 631.541L2011.71 638.222L2018.39 644.904ZM2065.72 692.231L2072.4 698.912L2079.08 692.231L2072.4 685.549L2065.72 692.231ZM2042.43 715.518L2035.75 708.837L2035.75 708.837L2042.43 715.518ZM1987.59 752.328L1983.98 743.6L1983.98 743.6L1987.59 752.328ZM1858.38 752.328L1862 743.6L1862 743.6L1858.38 752.328ZM1766.74 659.928L1757.91 663.292L1757.92 663.327L1757.93 663.363L1766.74 659.928ZM1766.74 532.972L1757.93 529.537L1757.93 529.537L1766.74 532.972ZM1803.55 477.382L1796.86 470.7L1796.86 470.7L1803.55 477.382ZM1859.14 440.572L1862.57 449.374L1862.63 449.352L1862.68 449.33L1859.14 440.572ZM1986.09 440.572L1982.47 449.3L1982.6 449.353L1982.73 449.401L1986.09 440.572ZM2065.72 500.669L2072.4 507.351L2079.08 500.669L2072.4 493.988L2065.72 500.669ZM1878.67 687.723L1871.99 681.042L1862.72 690.312L1874.44 696.174L1878.67 687.723ZM1938.76 697.489L1940.1 706.843L1940.19 706.83L1940.28 706.815L1938.76 697.489ZM1995.11 668.191L1988.43 661.51L1988.43 661.51L1995.11 668.191ZM1850.87 523.957L1844.19 517.276L1844.19 517.276L1850.87 523.957ZM1831.34 640.396L1822.89 644.622L1828.75 656.347L1838.02 647.078L1831.34 640.396ZM1858.38 613.352L1865.07 620.034L1865.07 620.034L1858.38 613.352ZM1897.45 574.289L1904.13 580.97L1897.45 574.289ZM1937.26 534.474L1930.71 527.663L1930.65 527.728L1930.58 527.793L1937.26 534.474ZM1967.31 505.177L1973.99 511.858L1983.26 502.588L1971.54 496.726L1967.31 505.177ZM1906.46 495.411L1905.16 486.053L1905.14 486.055L1905.13 486.057L1906.46 495.411ZM2018.39 644.904L2011.71 651.585L2059.04 698.912L2065.72 692.231L2072.4 685.549L2025.08 638.222L2018.39 644.904ZM2065.72 692.231L2059.04 685.549L2035.75 708.837L2042.43 715.518L2049.11 722.2L2072.4 698.912L2065.72 692.231ZM2042.43 715.518L2035.75 708.837C2020.58 724.004 2003.34 735.57 1983.98 743.6L1987.59 752.328L1991.21 761.056C2012.91 752.058 2032.23 739.085 2049.11 722.2L2042.43 715.518ZM1987.59 752.328L1983.98 743.6C1964.61 751.631 1944.3 755.65 1922.99 755.65V765.099V774.548C1946.75 774.548 1969.52 770.053 1991.21 761.056L1987.59 752.328ZM1922.99 765.099V755.65C1901.68 755.65 1881.37 751.631 1862 743.6L1858.38 752.328L1854.77 761.056C1876.46 770.053 1899.23 774.548 1922.99 774.548V765.099ZM1858.38 752.328L1862 743.6C1842.64 735.57 1825.39 724.004 1810.23 708.837L1803.55 715.518L1796.86 722.2C1813.75 739.085 1833.06 752.058 1854.77 761.056L1858.38 752.328ZM1803.55 715.518L1810.23 708.837C1794.57 693.177 1783.05 675.737 1775.54 656.493L1766.74 659.928L1757.93 663.363C1766.45 685.186 1779.47 704.806 1796.86 722.2L1803.55 715.518ZM1766.74 659.928L1775.57 656.564C1767.94 636.555 1764.16 616.408 1764.16 596.074H1754.72H1745.27C1745.27 618.81 1749.5 641.233 1757.91 663.292L1766.74 659.928ZM1754.72 596.074H1764.16C1764.16 575.742 1767.94 555.872 1775.54 536.407L1766.74 532.972L1757.93 529.537C1749.5 551.139 1745.27 573.336 1745.27 596.074H1754.72ZM1766.74 532.972L1775.54 536.407C1783.05 517.163 1794.57 499.723 1810.23 484.063L1803.55 477.382L1796.86 470.7C1779.47 488.094 1766.45 507.714 1757.93 529.537L1766.74 532.972ZM1803.55 477.382L1810.23 484.063C1825.89 468.403 1843.33 456.884 1862.57 449.374L1859.14 440.572L1855.7 431.77C1833.88 440.286 1814.26 453.306 1796.86 470.7L1803.55 477.382ZM1859.14 440.572L1862.68 449.33C1882.65 441.247 1902.73 437.25 1922.99 437.25V427.801V418.352C1900.17 418.352 1877.69 422.868 1855.59 431.813L1859.14 440.572ZM1922.99 427.801V437.25C1943.24 437.25 1963.05 441.246 1982.47 449.3L1986.09 440.572L1989.71 431.844C1968.07 422.87 1945.81 418.352 1922.99 418.352V427.801ZM1986.09 440.572L1982.73 449.401C2002.47 456.922 2020.13 468.441 2035.75 484.063L2042.43 477.382L2049.11 470.7C2031.68 453.268 2011.78 440.248 1989.46 431.742L1986.09 440.572ZM2042.43 477.382L2035.75 484.063L2059.04 507.351L2065.72 500.669L2072.4 493.988L2049.11 470.7L2042.43 477.382ZM2065.72 500.669L2059.04 493.988L1871.99 681.042L1878.67 687.723L1885.35 694.404L2072.4 507.351L2065.72 500.669ZM1878.67 687.723L1874.44 696.174C1895.19 706.548 1917.16 710.12 1940.1 706.843L1938.76 697.489L1937.43 688.135C1918.3 690.868 1900.21 687.929 1882.89 679.272L1878.67 687.723ZM1938.76 697.489L1940.28 706.815C1963.85 702.978 1984.42 692.242 2001.79 674.873L1995.11 668.191L1988.43 661.51C1973.74 676.193 1956.75 684.989 1937.25 688.163L1938.76 697.489ZM1995.11 668.191L2001.79 674.873L2025.08 651.585L2018.39 644.904L2011.71 638.222L1988.43 661.51L1995.11 668.191ZM1850.87 523.957L1844.19 517.276C1822.41 539.06 1811.37 565.494 1811.37 596.074H1820.82H1830.27C1830.27 570.563 1839.27 548.919 1857.55 530.638L1850.87 523.957ZM1820.82 596.074H1811.37C1811.37 613.081 1815.23 629.301 1822.89 644.622L1831.34 640.396L1839.79 636.171C1833.43 623.447 1830.27 610.118 1830.27 596.074H1820.82ZM1831.34 640.396L1838.02 647.078C1844.03 641.068 1853.05 632.053 1865.07 620.034L1858.38 613.352L1851.7 606.671C1839.68 618.691 1830.67 627.705 1824.66 633.715L1831.34 640.396ZM1858.38 613.352L1865.07 620.034C1877.59 607.513 1890.61 594.492 1904.13 580.97L1897.45 574.289L1890.77 567.608C1877.24 581.13 1864.22 594.151 1851.7 606.671L1858.38 613.352ZM1897.45 574.289L1904.13 580.97C1904.16 580.943 1904.18 580.915 1904.21 580.888C1904.24 580.861 1904.27 580.833 1904.29 580.806C1904.32 580.778 1904.35 580.751 1904.38 580.724C1904.4 580.696 1904.43 580.669 1904.46 580.642C1904.48 580.614 1904.51 580.587 1904.54 580.56C1904.57 580.532 1904.59 580.505 1904.62 580.477C1904.65 580.45 1904.68 580.423 1904.7 580.395C1904.73 580.368 1904.76 580.341 1904.79 580.313C1904.81 580.286 1904.84 580.259 1904.87 580.231C1904.9 580.204 1904.92 580.177 1904.95 580.149C1904.98 580.122 1905 580.095 1905.03 580.067C1905.06 580.04 1905.09 580.013 1905.11 579.985C1905.14 579.958 1905.17 579.931 1905.2 579.903C1905.22 579.876 1905.25 579.849 1905.28 579.822C1905.3 579.794 1905.33 579.767 1905.36 579.74C1905.39 579.712 1905.41 579.685 1905.44 579.658C1905.47 579.63 1905.5 579.603 1905.52 579.576C1905.55 579.549 1905.58 579.521 1905.61 579.494C1905.63 579.467 1905.66 579.439 1905.69 579.412C1905.71 579.385 1905.74 579.358 1905.77 579.33C1905.8 579.303 1905.82 579.276 1905.85 579.248C1905.88 579.221 1905.91 579.194 1905.93 579.167C1905.96 579.139 1905.99 579.112 1906.01 579.085C1906.04 579.058 1906.07 579.03 1906.1 579.003C1906.12 578.976 1906.15 578.949 1906.18 578.921C1906.2 578.894 1906.23 578.867 1906.26 578.84C1906.29 578.812 1906.31 578.785 1906.34 578.758C1906.37 578.731 1906.4 578.704 1906.42 578.676C1906.45 578.649 1906.48 578.622 1906.5 578.595C1906.53 578.567 1906.56 578.54 1906.59 578.513C1906.61 578.486 1906.64 578.459 1906.67 578.431C1906.7 578.404 1906.72 578.377 1906.75 578.35C1906.78 578.322 1906.8 578.295 1906.83 578.268C1906.86 578.241 1906.89 578.214 1906.91 578.187C1906.94 578.159 1906.97 578.132 1906.99 578.105C1907.02 578.078 1907.05 578.051 1907.08 578.023C1907.1 577.996 1907.13 577.969 1907.16 577.942C1907.18 577.915 1907.21 577.887 1907.24 577.86C1907.27 577.833 1907.29 577.806 1907.32 577.779C1907.35 577.752 1907.37 577.724 1907.4 577.697C1907.43 577.67 1907.46 577.643 1907.48 577.616C1907.51 577.589 1907.54 577.562 1907.56 577.534C1907.59 577.507 1907.62 577.48 1907.65 577.453C1907.67 577.426 1907.7 577.399 1907.73 577.372C1907.75 577.344 1907.78 577.317 1907.81 577.29C1907.84 577.263 1907.86 577.236 1907.89 577.209C1907.92 577.182 1907.94 577.155 1907.97 577.127C1908 577.1 1908.03 577.073 1908.05 577.046C1908.08 577.019 1908.11 576.992 1908.13 576.965C1908.16 576.938 1908.19 576.911 1908.22 576.883C1908.24 576.856 1908.27 576.829 1908.3 576.802C1908.32 576.775 1908.35 576.748 1908.38 576.721C1908.41 576.694 1908.43 576.667 1908.46 576.64C1908.49 576.612 1908.51 576.585 1908.54 576.558C1908.57 576.531 1908.59 576.504 1908.62 576.477C1908.65 576.45 1908.68 576.423 1908.7 576.396C1908.73 576.369 1908.76 576.342 1908.78 576.315C1908.81 576.288 1908.84 576.261 1908.87 576.234C1908.89 576.206 1908.92 576.179 1908.95 576.152C1908.97 576.125 1909 576.098 1909.03 576.071C1909.05 576.044 1909.08 576.017 1909.11 575.99C1909.14 575.963 1909.16 575.936 1909.19 575.909C1909.22 575.882 1909.24 575.855 1909.27 575.828C1909.3 575.801 1909.33 575.774 1909.35 575.747C1909.38 575.72 1909.41 575.693 1909.43 575.666C1909.46 575.639 1909.49 575.612 1909.51 575.585C1909.54 575.558 1909.57 575.531 1909.6 575.504C1909.62 575.477 1909.65 575.45 1909.68 575.423C1909.7 575.396 1909.73 575.369 1909.76 575.342C1909.78 575.315 1909.81 575.288 1909.84 575.261C1909.87 575.234 1909.89 575.207 1909.92 575.18C1909.95 575.153 1909.97 575.126 1910 575.099C1910.03 575.072 1910.05 575.045 1910.08 575.018C1910.11 574.991 1910.14 574.964 1910.16 574.937C1910.19 574.91 1910.22 574.883 1910.24 574.856C1910.27 574.829 1910.3 574.802 1910.32 574.775C1910.35 574.748 1910.38 574.721 1910.4 574.694C1910.43 574.668 1910.46 574.641 1910.49 574.614C1910.51 574.587 1910.54 574.56 1910.57 574.533C1910.59 574.506 1910.62 574.479 1910.65 574.452C1910.67 574.425 1910.7 574.398 1910.73 574.371C1910.75 574.344 1910.78 574.317 1910.81 574.29C1910.84 574.264 1910.86 574.237 1910.89 574.21C1910.92 574.183 1910.94 574.156 1910.97 574.129C1911 574.102 1911.02 574.075 1911.05 574.048C1911.08 574.021 1911.1 573.994 1911.13 573.968C1911.16 573.941 1911.19 573.914 1911.21 573.887C1911.24 573.86 1911.27 573.833 1911.29 573.806C1911.32 573.779 1911.35 573.752 1911.37 573.726C1911.4 573.699 1911.43 573.672 1911.45 573.645C1911.48 573.618 1911.51 573.591 1911.53 573.564C1911.56 573.538 1911.59 573.511 1911.62 573.484C1911.64 573.457 1911.67 573.43 1911.7 573.403C1911.72 573.376 1911.75 573.349 1911.78 573.323C1911.8 573.296 1911.83 573.269 1911.86 573.242C1911.88 573.215 1911.91 573.188 1911.94 573.162C1912.22 572.875 1912.3 572.804 1912.58 572.518C1912.61 572.491 1912.63 572.464 1912.66 572.438C1912.69 572.411 1912.72 572.384 1912.74 572.357C1912.77 572.331 1912.8 572.304 1912.82 572.277C1912.85 572.25 1912.88 572.223 1912.9 572.197C1912.93 572.17 1912.96 572.143 1912.98 572.116C1913.01 572.09 1913.04 572.063 1913.06 572.036C1913.09 572.009 1913.12 571.983 1913.14 571.956C1913.17 571.929 1913.2 571.902 1913.22 571.876C1913.25 571.849 1913.28 571.822 1913.3 571.795C1913.33 571.769 1913.36 571.742 1913.38 571.715C1913.41 571.688 1913.44 571.662 1913.46 571.635C1913.49 571.608 1913.52 571.581 1913.54 571.555C1913.57 571.528 1913.6 571.501 1913.62 571.475C1913.65 571.448 1913.68 571.421 1913.7 571.394C1913.73 571.368 1913.76 571.341 1913.78 571.314C1913.81 571.288 1913.84 571.261 1913.86 571.234C1913.89 571.207 1913.92 571.181 1913.95 571.154C1913.97 571.127 1914 571.101 1914.03 571.074C1914.05 571.047 1914.08 571.021 1914.11 570.994C1914.13 570.967 1914.16 570.941 1914.19 570.914C1914.21 570.887 1914.24 570.861 1914.27 570.834C1914.29 570.807 1914.32 570.781 1914.35 570.754C1914.37 570.727 1914.4 570.701 1914.43 570.674C1914.45 570.647 1914.48 570.621 1914.51 570.594C1914.53 570.567 1914.56 570.541 1914.59 570.514C1914.61 570.487 1914.64 570.461 1914.67 570.434C1914.81 570.292 1914.68 570.416 1914.82 570.274C1914.85 570.248 1914.88 570.221 1914.9 570.194C1914.93 570.168 1914.96 570.141 1914.98 570.114C1915.01 570.088 1915.04 570.061 1915.06 570.035C1915.09 570.008 1915.12 569.981 1915.14 569.955C1915.29 569.813 1915.64 569.458 1915.78 569.317C1916.35 568.75 1916.49 568.609 1917.06 568.044C1917.08 568.017 1917.11 567.991 1917.13 567.964C1917.16 567.938 1917.19 567.912 1917.21 567.885C1917.24 567.859 1917.27 567.832 1917.29 567.806C1917.32 567.779 1917.35 567.753 1917.37 567.726C1917.4 567.7 1917.43 567.673 1917.45 567.647C1917.48 567.621 1917.5 567.594 1917.53 567.568C1917.56 567.541 1917.58 567.515 1917.61 567.488C1917.64 567.462 1917.66 567.436 1917.69 567.409C1917.72 567.383 1917.74 567.356 1917.77 567.33C1917.8 567.303 1917.82 567.277 1917.85 567.251C1917.87 567.224 1917.9 567.198 1917.93 567.171C1917.95 567.145 1917.98 567.119 1918.01 567.092C1918.03 567.066 1918.06 567.039 1918.09 567.013C1918.11 566.987 1918.14 566.96 1918.17 566.934C1918.19 566.907 1918.22 566.881 1918.24 566.855C1918.27 566.828 1918.3 566.802 1918.32 566.775C1918.89 566.212 1919.03 566.073 1919.59 565.511C1920.71 564.392 1920.99 564.11 1922.1 562.997C1922.13 562.971 1922.15 562.944 1922.18 562.918C1922.21 562.892 1922.23 562.866 1922.26 562.84C1922.29 562.814 1922.31 562.788 1922.34 562.762C1922.36 562.736 1922.39 562.71 1922.42 562.684C1922.44 562.657 1922.47 562.631 1922.49 562.605C1922.52 562.579 1922.55 562.553 1922.57 562.527C1922.6 562.501 1922.62 562.475 1922.65 562.449C1922.68 562.423 1922.7 562.397 1922.73 562.371C1922.75 562.345 1922.78 562.319 1922.81 562.293C1922.83 562.266 1922.86 562.24 1922.88 562.214C1922.91 562.188 1922.94 562.162 1922.96 562.136C1922.99 562.11 1923.01 562.084 1923.04 562.058C1923.07 562.032 1923.09 562.006 1923.12 561.98C1923.15 561.954 1923.17 561.928 1923.2 561.902C1923.22 561.876 1923.25 561.85 1923.28 561.824C1923.3 561.798 1923.33 561.772 1923.35 561.746C1923.38 561.72 1923.41 561.694 1923.43 561.668C1923.46 561.642 1923.48 561.616 1923.51 561.59C1923.54 561.564 1923.56 561.538 1923.59 561.512C1923.61 561.486 1923.64 561.46 1923.67 561.434C1923.69 561.408 1923.72 561.382 1923.74 561.356C1923.77 561.33 1923.8 561.304 1923.82 561.278C1923.85 561.252 1923.87 561.226 1923.9 561.2C1923.93 561.174 1923.95 561.148 1923.98 561.122C1924 561.096 1924.03 561.07 1924.05 561.044C1924.08 561.018 1924.11 560.992 1924.13 560.966C1924.16 560.94 1924.18 560.914 1924.21 560.888C1924.24 560.862 1924.26 560.837 1924.29 560.811C1924.31 560.785 1924.34 560.759 1924.37 560.733C1924.39 560.707 1924.42 560.681 1924.44 560.655C1924.47 560.629 1924.5 560.603 1924.52 560.577C1924.55 560.551 1924.57 560.525 1924.6 560.499C1924.63 560.473 1924.65 560.448 1924.68 560.422C1924.7 560.396 1924.73 560.37 1924.76 560.344C1924.78 560.318 1924.81 560.292 1924.83 560.266C1924.86 560.24 1924.88 560.214 1924.91 560.188C1924.94 560.163 1924.96 560.137 1924.99 560.111C1925.01 560.085 1925.04 560.059 1925.07 560.033C1925.09 560.007 1925.12 559.981 1925.14 559.955C1925.17 559.93 1925.2 559.904 1925.22 559.878C1925.25 559.852 1925.27 559.826 1925.3 559.8C1925.32 559.774 1925.35 559.749 1925.38 559.723C1925.4 559.697 1925.43 559.671 1925.45 559.645C1925.48 559.619 1925.51 559.593 1925.53 559.567C1925.56 559.542 1925.58 559.516 1925.61 559.49C1925.64 559.464 1925.66 559.438 1925.69 559.412C1925.71 559.387 1925.74 559.361 1925.76 559.335C1925.79 559.309 1925.82 559.283 1925.84 559.257C1925.87 559.232 1925.89 559.206 1925.92 559.18C1925.95 559.154 1925.97 559.128 1926 559.102C1926.02 559.077 1926.05 559.051 1926.07 559.025C1926.1 558.999 1926.13 558.973 1926.15 558.948C1926.18 558.922 1926.2 558.896 1926.23 558.87C1926.25 558.844 1926.28 558.819 1926.31 558.793C1926.33 558.767 1926.36 558.741 1926.38 558.715C1926.41 558.69 1926.44 558.664 1926.46 558.638C1926.49 558.612 1926.51 558.586 1926.54 558.561C1926.56 558.535 1926.59 558.509 1926.62 558.483C1926.64 558.458 1926.67 558.432 1926.69 558.406C1926.72 558.38 1926.74 558.355 1926.77 558.329C1926.8 558.303 1926.82 558.277 1926.85 558.252C1926.87 558.226 1926.9 558.2 1926.92 558.174C1926.95 558.149 1926.98 558.123 1927 558.097C1927.03 558.071 1927.05 558.046 1927.08 558.02C1928.18 556.923 1928.45 556.649 1929.54 555.558C1930.63 554.468 1930.9 554.197 1931.99 553.113C1932.01 553.088 1932.04 553.063 1932.06 553.037C1932.09 553.012 1932.11 552.987 1932.14 552.961C1932.16 552.936 1932.19 552.91 1932.21 552.885C1932.24 552.86 1932.26 552.834 1932.29 552.809C1932.32 552.784 1932.34 552.758 1932.37 552.733C1932.39 552.708 1932.42 552.682 1932.44 552.657C1932.47 552.632 1932.49 552.606 1932.52 552.581C1932.54 552.556 1932.57 552.53 1932.59 552.505C1933.13 551.965 1932.66 552.438 1933.2 551.898C1933.34 551.763 1933.37 551.729 1933.5 551.595C1933.64 551.46 1933.67 551.426 1933.81 551.292C1933.83 551.266 1933.86 551.241 1933.88 551.216C1933.91 551.191 1933.93 551.166 1933.96 551.14C1933.98 551.115 1934.01 551.09 1934.03 551.065C1934.06 551.039 1934.08 551.014 1934.11 550.989C1934.14 550.964 1934.16 550.939 1934.19 550.913C1934.21 550.888 1934.24 550.863 1934.26 550.838C1934.29 550.813 1934.31 550.787 1934.34 550.762C1934.36 550.737 1934.39 550.712 1934.41 550.687C1934.44 550.661 1934.46 550.636 1934.49 550.611C1934.51 550.586 1934.54 550.561 1934.56 550.536C1934.59 550.51 1934.61 550.485 1934.64 550.46C1934.66 550.435 1934.69 550.41 1934.71 550.384C1934.74 550.359 1934.76 550.334 1934.79 550.309C1934.82 550.284 1934.84 550.259 1934.87 550.234C1934.89 550.208 1934.92 550.183 1934.94 550.158C1934.97 550.133 1934.99 550.108 1935.02 550.083C1935.04 550.058 1935.07 550.032 1935.09 550.007C1935.12 549.982 1935.14 549.957 1935.17 549.932C1935.19 549.907 1935.22 549.882 1935.24 549.856C1935.27 549.831 1935.29 549.806 1935.32 549.781C1935.34 549.756 1935.37 549.731 1935.39 549.706C1935.42 549.681 1935.44 549.656 1935.47 549.63C1935.49 549.605 1935.52 549.58 1935.54 549.555C1935.57 549.53 1935.59 549.505 1935.62 549.48C1935.64 549.455 1935.67 549.43 1935.69 549.405C1935.72 549.379 1935.74 549.354 1935.77 549.329C1935.79 549.304 1935.82 549.279 1935.85 549.254C1935.87 549.229 1935.9 549.204 1935.92 549.179C1935.95 549.154 1935.97 549.129 1936 549.104C1936.02 549.079 1936.05 549.053 1936.07 549.028C1936.1 549.003 1936.12 548.978 1936.15 548.953C1936.17 548.928 1936.2 548.903 1936.22 548.878C1936.49 548.611 1936.55 548.544 1936.82 548.277C1936.85 548.252 1936.87 548.227 1936.9 548.202C1936.92 548.177 1936.95 548.152 1936.97 548.127C1937 548.102 1937.02 548.077 1937.05 548.052C1937.07 548.027 1937.1 548.002 1937.12 547.978C1937.15 547.953 1937.17 547.928 1937.2 547.903C1937.22 547.878 1937.25 547.853 1937.27 547.828C1937.3 547.803 1937.32 547.778 1937.35 547.753C1937.37 547.728 1937.4 547.703 1937.42 547.678C1937.45 547.653 1937.47 547.628 1937.5 547.603C1937.52 547.578 1937.55 547.553 1937.57 547.528C1937.6 547.503 1937.62 547.478 1937.65 547.453C1937.67 547.428 1937.7 547.403 1937.72 547.379C1937.75 547.354 1937.77 547.329 1937.8 547.304C1937.82 547.279 1937.85 547.254 1937.87 547.229C1937.9 547.204 1937.92 547.179 1937.94 547.154C1937.97 547.129 1937.99 547.104 1938.02 547.079C1938.04 547.055 1938.07 547.03 1938.09 547.005C1938.12 546.98 1938.14 546.955 1938.17 546.93C1938.19 546.905 1938.22 546.88 1938.24 546.855C1938.27 546.83 1938.29 546.806 1938.32 546.781C1938.34 546.756 1938.37 546.731 1938.39 546.706C1938.42 546.681 1938.44 546.656 1938.47 546.631C1938.49 546.606 1938.52 546.582 1938.54 546.557C1938.57 546.532 1938.59 546.507 1938.62 546.482C1938.64 546.457 1938.67 546.432 1938.69 546.407C1938.72 546.383 1938.74 546.358 1938.77 546.333C1938.79 546.308 1938.82 546.283 1938.84 546.258C1938.87 546.234 1938.89 546.209 1938.92 546.184C1938.94 546.159 1938.97 546.134 1938.99 546.109C1939.01 546.084 1939.04 546.06 1939.06 546.035C1939.09 546.01 1939.11 545.985 1939.14 545.96C1939.16 545.935 1939.19 545.911 1939.21 545.886C1939.24 545.861 1939.26 545.836 1939.29 545.811C1939.31 545.787 1939.34 545.762 1939.36 545.737C1939.39 545.712 1939.41 545.687 1939.44 545.663C1939.46 545.638 1939.49 545.613 1939.51 545.588C1939.54 545.563 1939.56 545.539 1939.59 545.514C1939.61 545.489 1939.63 545.464 1939.66 545.439C1939.68 545.415 1939.71 545.39 1939.73 545.365C1939.76 545.34 1939.78 545.315 1939.81 545.291C1939.83 545.266 1939.86 545.241 1939.88 545.216C1939.91 545.192 1939.93 545.167 1939.96 545.142C1939.98 545.117 1940.01 545.093 1940.03 545.068C1940.06 545.043 1940.08 545.018 1940.11 544.994C1940.13 544.969 1940.16 544.944 1940.18 544.919C1940.2 544.895 1940.23 544.87 1940.25 544.845C1940.28 544.82 1940.3 544.796 1940.33 544.771C1940.35 544.746 1940.38 544.721 1940.4 544.697C1940.43 544.672 1940.45 544.647 1940.48 544.622C1940.5 544.598 1940.53 544.573 1940.55 544.548C1940.58 544.524 1940.6 544.499 1940.62 544.474C1940.65 544.449 1940.67 544.425 1940.7 544.4C1940.72 544.375 1940.75 544.351 1940.77 544.326C1940.8 544.301 1940.82 544.277 1940.85 544.252C1940.87 544.227 1940.9 544.202 1940.92 544.178C1940.95 544.153 1940.97 544.128 1941 544.104C1941.02 544.079 1941.04 544.054 1941.07 544.03C1941.09 544.005 1941.12 543.98 1941.14 543.956C1941.17 543.931 1941.19 543.906 1941.22 543.882C1941.24 543.857 1941.27 543.832 1941.29 543.808C1941.32 543.783 1941.34 543.758 1941.37 543.734C1941.39 543.709 1941.41 543.684 1941.44 543.66C1941.46 543.635 1941.49 543.61 1941.51 543.586C1941.54 543.561 1941.56 543.536 1941.59 543.512C1942.25 542.846 1943.28 541.816 1943.94 541.155L1937.26 534.474L1930.58 527.793C1930.06 528.315 1930.52 527.858 1929.99 528.38C1929.97 528.405 1929.94 528.429 1929.92 528.454C1929.9 528.479 1929.87 528.503 1929.85 528.528C1929.82 528.552 1929.8 528.577 1929.77 528.601C1929.75 528.626 1929.72 528.65 1929.7 528.675C1929.68 528.699 1929.65 528.724 1929.63 528.748C1929.6 528.773 1929.58 528.797 1929.55 528.822C1929.53 528.846 1929.5 528.871 1929.48 528.895C1929.45 528.92 1929.43 528.944 1929.41 528.969C1929.38 528.994 1929.36 529.018 1929.33 529.043C1929.31 529.067 1929.28 529.092 1929.26 529.116C1929.23 529.141 1929.21 529.165 1929.18 529.19C1929.16 529.215 1929.14 529.239 1929.11 529.264C1929.09 529.288 1929.06 529.313 1929.04 529.337C1929.01 529.362 1928.99 529.387 1928.96 529.411C1928.94 529.436 1928.91 529.46 1928.89 529.485C1928.86 529.509 1928.84 529.534 1928.82 529.559C1928.79 529.583 1928.77 529.608 1928.74 529.632C1928.72 529.657 1928.69 529.682 1928.67 529.706C1928.64 529.731 1928.62 529.755 1928.59 529.78C1928.57 529.805 1928.54 529.829 1928.52 529.854C1928.5 529.879 1928.47 529.903 1928.45 529.928C1928.42 529.952 1928.4 529.977 1928.37 530.002C1928.35 530.026 1928.32 530.051 1928.3 530.076C1928.27 530.1 1928.25 530.125 1928.22 530.149C1928.2 530.174 1928.18 530.199 1928.15 530.223C1928.13 530.248 1928.1 530.273 1928.08 530.297C1928.05 530.322 1928.03 530.347 1928 530.371C1927.98 530.396 1927.95 530.421 1927.93 530.445C1927.9 530.47 1927.88 530.495 1927.86 530.519C1927.83 530.544 1927.81 530.569 1927.78 530.593C1927.76 530.618 1927.73 530.643 1927.71 530.667C1927.68 530.692 1927.66 530.717 1927.63 530.741C1927.61 530.766 1927.58 530.791 1927.56 530.815C1927.53 530.84 1927.51 530.865 1927.48 530.889C1927.46 530.914 1927.44 530.939 1927.41 530.963C1927.39 530.988 1927.36 531.013 1927.34 531.038C1927.31 531.062 1927.29 531.087 1927.26 531.112C1927.24 531.136 1927.21 531.161 1927.19 531.186C1927.16 531.211 1927.14 531.235 1927.11 531.26C1927.09 531.285 1927.06 531.309 1927.04 531.334C1927.02 531.359 1926.99 531.384 1926.97 531.408C1926.94 531.433 1926.92 531.458 1926.89 531.483C1926.87 531.507 1926.84 531.532 1926.82 531.557C1926.79 531.582 1926.77 531.606 1926.74 531.631C1926.72 531.656 1926.69 531.681 1926.67 531.705C1926.64 531.73 1926.62 531.755 1926.59 531.78C1926.57 531.804 1926.55 531.829 1926.52 531.854C1926.5 531.879 1926.47 531.903 1926.45 531.928C1926.42 531.953 1926.4 531.978 1926.37 532.003C1926.35 532.027 1926.32 532.052 1926.3 532.077C1926.27 532.102 1926.25 532.127 1926.22 532.151C1926.2 532.176 1926.17 532.201 1926.15 532.226C1926.12 532.25 1926.1 532.275 1926.07 532.3C1926.05 532.325 1926.02 532.35 1926 532.375C1925.97 532.399 1925.95 532.424 1925.93 532.449C1925.9 532.474 1925.88 532.499 1925.85 532.523C1925.83 532.548 1925.8 532.573 1925.78 532.598C1925.75 532.623 1925.73 532.648 1925.7 532.672C1925.68 532.697 1925.65 532.722 1925.63 532.747C1925.6 532.772 1925.58 532.797 1925.55 532.821C1925.53 532.846 1925.5 532.871 1925.48 532.896C1925.45 532.921 1925.43 532.946 1925.4 532.97C1925.38 532.995 1925.35 533.02 1925.33 533.045C1925.3 533.07 1925.28 533.095 1925.25 533.12C1925.23 533.145 1925.2 533.169 1925.18 533.194C1925.16 533.219 1925.13 533.244 1925.11 533.269C1925.08 533.294 1925.06 533.319 1925.03 533.344C1925.01 533.368 1924.98 533.393 1924.96 533.418C1924.93 533.443 1924.91 533.468 1924.88 533.493C1924.86 533.518 1924.83 533.543 1924.81 533.568C1924.78 533.592 1924.76 533.617 1924.73 533.642C1924.71 533.667 1924.68 533.692 1924.66 533.717C1924.63 533.742 1924.61 533.767 1924.58 533.792C1924.56 533.817 1924.53 533.842 1924.51 533.866C1924.48 533.891 1924.46 533.916 1924.43 533.941C1924.41 533.966 1924.38 533.991 1924.36 534.016C1924.33 534.041 1924.31 534.066 1924.28 534.091C1924.26 534.116 1924.23 534.141 1924.21 534.166C1924.18 534.191 1924.16 534.216 1924.13 534.241C1924.11 534.266 1924.08 534.29 1924.06 534.315C1924.03 534.34 1924.01 534.365 1923.98 534.39C1923.96 534.415 1923.93 534.44 1923.91 534.465C1923.88 534.49 1923.86 534.515 1923.83 534.54C1923.81 534.565 1923.78 534.59 1923.76 534.615C1923.73 534.64 1923.71 534.665 1923.68 534.69C1923.66 534.715 1923.63 534.74 1923.61 534.765C1923.58 534.79 1923.56 534.815 1923.53 534.84C1923.51 534.865 1923.48 534.89 1923.46 534.915C1923.43 534.94 1923.41 534.965 1923.38 534.99C1923.36 535.015 1923.33 535.04 1923.31 535.065C1923.28 535.09 1923.26 535.115 1923.23 535.14C1923.21 535.165 1923.18 535.19 1923.16 535.215C1923.13 535.24 1923.11 535.265 1923.08 535.29C1923.06 535.315 1923.03 535.34 1923.01 535.365C1922.98 535.39 1922.96 535.415 1922.93 535.44C1922.91 535.466 1922.88 535.491 1922.86 535.516C1922.83 535.541 1922.81 535.566 1922.78 535.591C1922.76 535.616 1922.73 535.641 1922.71 535.666C1922.68 535.691 1922.66 535.716 1922.63 535.741C1922.61 535.766 1922.58 535.791 1922.56 535.816C1922.53 535.841 1922.51 535.867 1922.48 535.892C1922.46 535.917 1922.43 535.942 1922.41 535.967C1922.38 535.992 1922.36 536.017 1922.33 536.042C1922.31 536.067 1922.28 536.092 1922.26 536.117C1922.23 536.142 1922.21 536.168 1922.18 536.193C1922.16 536.218 1922.13 536.243 1922.11 536.268C1922.08 536.293 1922.06 536.318 1922.03 536.343C1922.01 536.368 1921.98 536.394 1921.96 536.419C1921.93 536.444 1921.91 536.469 1921.88 536.494C1921.86 536.519 1921.83 536.544 1921.8 536.569C1921.78 536.595 1921.75 536.62 1921.73 536.645C1921.7 536.67 1921.68 536.695 1921.65 536.72C1921.63 536.745 1921.6 536.77 1921.58 536.796C1921.55 536.821 1921.53 536.846 1921.5 536.871C1921.48 536.896 1921.45 536.921 1921.43 536.947C1921.4 536.972 1921.38 536.997 1921.35 537.022C1921.33 537.047 1921.3 537.072 1921.28 537.098C1921.25 537.123 1921.23 537.148 1921.2 537.173C1921.18 537.198 1921.15 537.223 1921.13 537.249C1921.1 537.274 1921.08 537.299 1921.05 537.324C1921.02 537.349 1921 537.375 1920.97 537.4C1920.95 537.425 1920.92 537.45 1920.9 537.475C1920.87 537.501 1920.85 537.526 1920.82 537.551C1920.8 537.576 1920.77 537.601 1920.75 537.627C1920.34 538.03 1920.85 537.525 1920.45 537.929C1919.91 538.468 1920.38 537.996 1919.84 538.535C1919.7 538.67 1919.67 538.704 1919.54 538.839C1919.33 539.041 1919.59 538.788 1919.38 538.991C1919.36 539.016 1919.33 539.041 1919.31 539.067C1919.28 539.092 1919.26 539.117 1919.23 539.143C1919.21 539.168 1919.18 539.193 1919.16 539.219C1919.13 539.244 1919.11 539.269 1919.08 539.295C1919.05 539.32 1919.03 539.345 1919 539.371C1918.98 539.396 1918.95 539.421 1918.93 539.447C1918.9 539.472 1918.88 539.497 1918.85 539.523C1918.83 539.548 1918.8 539.573 1918.78 539.599C1918.75 539.624 1918.72 539.649 1918.7 539.675C1918.67 539.7 1918.65 539.726 1918.62 539.751C1918.6 539.776 1918.57 539.802 1918.55 539.827C1918.52 539.852 1918.5 539.878 1918.47 539.903C1918.45 539.929 1918.42 539.954 1918.39 539.979C1918.37 540.005 1918.34 540.03 1918.32 540.056C1918.29 540.081 1918.27 540.106 1918.24 540.132C1918.22 540.157 1918.19 540.183 1918.17 540.208C1918.14 540.233 1918.12 540.259 1918.09 540.284C1918.06 540.31 1918.04 540.335 1918.01 540.36C1917.99 540.386 1917.96 540.411 1917.94 540.437C1917.91 540.462 1917.89 540.488 1917.86 540.513C1917.84 540.538 1917.81 540.564 1917.79 540.589C1917.76 540.615 1917.73 540.64 1917.71 540.666C1917.68 540.691 1917.66 540.716 1917.63 540.742C1917.61 540.767 1917.58 540.793 1917.56 540.818C1917.53 540.844 1917.51 540.869 1917.48 540.895C1917.45 540.92 1917.43 540.945 1917.4 540.971C1916.86 541.514 1916.72 541.651 1916.18 542.195C1915.09 543.287 1914.81 543.56 1913.72 544.657C1913.69 544.683 1913.67 544.709 1913.64 544.735C1913.61 544.76 1913.59 544.786 1913.56 544.812C1913.54 544.838 1913.51 544.863 1913.49 544.889C1913.46 544.915 1913.43 544.941 1913.41 544.966C1913.38 544.992 1913.36 545.018 1913.33 545.044C1913.3 545.069 1913.28 545.095 1913.25 545.121C1913.23 545.147 1913.2 545.172 1913.18 545.198C1913.15 545.224 1913.12 545.25 1913.1 545.276C1913.07 545.301 1913.05 545.327 1913.02 545.353C1913 545.379 1912.97 545.405 1912.94 545.43C1912.92 545.456 1912.89 545.482 1912.87 545.508C1912.84 545.534 1912.81 545.559 1912.79 545.585C1912.76 545.611 1912.74 545.637 1912.71 545.663C1912.69 545.688 1912.66 545.714 1912.63 545.74C1912.61 545.766 1912.58 545.792 1912.56 545.817C1912.53 545.843 1912.51 545.869 1912.48 545.895C1912.45 545.921 1912.43 545.947 1912.4 545.972C1912.38 545.998 1912.35 546.024 1912.32 546.05C1912.3 546.076 1912.27 546.102 1912.25 546.128C1912.22 546.153 1912.2 546.179 1912.17 546.205C1912.14 546.231 1912.12 546.257 1912.09 546.283C1912.07 546.308 1912.04 546.334 1912.01 546.36C1911.99 546.386 1911.96 546.412 1911.94 546.438C1911.91 546.464 1911.88 546.49 1911.86 546.515C1911.83 546.541 1911.81 546.567 1911.78 546.593C1911.76 546.619 1911.73 546.645 1911.7 546.671C1911.68 546.697 1911.65 546.722 1911.63 546.748C1911.6 546.774 1911.57 546.8 1911.55 546.826C1911.52 546.852 1911.5 546.878 1911.47 546.904C1911.44 546.93 1911.42 546.956 1911.39 546.981C1911.37 547.007 1911.34 547.033 1911.32 547.059C1911.29 547.085 1911.26 547.111 1911.24 547.137C1911.21 547.163 1911.19 547.189 1911.16 547.215C1911.13 547.241 1911.11 547.267 1911.08 547.293C1911.06 547.318 1911.03 547.344 1911 547.37C1910.98 547.396 1910.95 547.422 1910.93 547.448C1910.9 547.474 1910.87 547.5 1910.85 547.526C1910.82 547.552 1910.8 547.578 1910.77 547.604C1910.74 547.63 1910.72 547.656 1910.69 547.682C1910.67 547.708 1910.64 547.734 1910.61 547.76C1910.59 547.786 1910.56 547.812 1910.54 547.838C1910.51 547.864 1910.48 547.889 1910.46 547.915C1910.43 547.941 1910.41 547.967 1910.38 547.993C1910.35 548.019 1910.33 548.045 1910.3 548.071C1910.28 548.097 1910.25 548.123 1910.22 548.149C1910.2 548.175 1910.17 548.201 1910.15 548.227C1910.12 548.253 1910.09 548.279 1910.07 548.305C1910.04 548.331 1910.02 548.357 1909.99 548.383C1909.96 548.409 1909.94 548.435 1909.91 548.461C1909.89 548.487 1909.86 548.513 1909.83 548.539C1909.81 548.566 1909.78 548.592 1909.76 548.618C1909.73 548.644 1909.7 548.67 1909.68 548.696C1909.65 548.722 1909.63 548.748 1909.6 548.774C1909.57 548.8 1909.55 548.826 1909.52 548.852C1909.5 548.878 1909.47 548.904 1909.44 548.93C1909.42 548.956 1909.39 548.982 1909.37 549.008C1909.34 549.034 1909.31 549.06 1909.29 549.086C1909.26 549.112 1909.24 549.139 1909.21 549.165C1909.18 549.191 1909.16 549.217 1909.13 549.243C1909.11 549.269 1909.08 549.295 1909.05 549.321C1909.03 549.347 1909 549.373 1908.97 549.399C1908.95 549.425 1908.92 549.452 1908.9 549.478C1908.87 549.504 1908.84 549.53 1908.82 549.556C1908.79 549.582 1908.77 549.608 1908.74 549.634C1907.63 550.748 1907.34 551.029 1906.23 552.149C1905.1 553.27 1904.82 553.554 1903.69 554.681C1903.13 555.247 1902.99 555.388 1902.42 555.954C1902.28 556.096 1901.92 556.45 1901.78 556.592C1901.76 556.619 1901.73 556.646 1901.7 556.672C1901.68 556.699 1901.65 556.725 1901.62 556.752C1901.6 556.779 1901.57 556.805 1901.54 556.832C1901.52 556.859 1901.49 556.885 1901.46 556.912C1901.46 556.912 1901.3 557.072 1901.3 557.072C1901.16 557.214 1901.28 557.089 1901.14 557.231C1900.42 557.95 1899.3 559.075 1898.58 559.799C1898.55 559.826 1898.52 559.853 1898.49 559.88C1898.47 559.907 1898.44 559.933 1898.41 559.96C1898.39 559.987 1898.36 560.014 1898.33 560.041C1898.31 560.068 1898.28 560.094 1898.25 560.121C1898.23 560.148 1898.2 560.175 1898.17 560.202C1898.15 560.229 1898.12 560.256 1898.09 560.283C1898.06 560.309 1898.04 560.336 1898.01 560.363C1897.98 560.39 1897.96 560.417 1897.93 560.444C1897.9 560.471 1897.88 560.498 1897.85 560.524C1897.82 560.551 1897.8 560.578 1897.77 560.605C1897.74 560.632 1897.72 560.659 1897.69 560.686C1897.66 560.713 1897.63 560.74 1897.61 560.767C1897.58 560.793 1897.55 560.82 1897.53 560.847C1897.5 560.874 1897.47 560.901 1897.45 560.928C1897.42 560.955 1897.39 560.982 1897.37 561.009C1897.34 561.036 1897.31 561.063 1897.28 561.09C1897.26 561.116 1897.23 561.143 1897.2 561.17C1897.18 561.197 1897.15 561.224 1897.12 561.251C1897.1 561.278 1897.07 561.305 1897.04 561.332C1897.02 561.359 1896.99 561.386 1896.96 561.413C1896.93 561.44 1896.91 561.467 1896.88 561.494C1896.85 561.521 1896.83 561.548 1896.8 561.575C1896.77 561.602 1896.75 561.629 1896.72 561.656C1896.69 561.682 1896.66 561.709 1896.64 561.736C1896.61 561.763 1896.58 561.79 1896.56 561.817C1896.53 561.844 1896.5 561.871 1896.48 561.898C1896.45 561.925 1896.42 561.952 1896.39 561.979C1896.37 562.006 1896.34 562.033 1896.31 562.06C1896.29 562.087 1896.26 562.114 1896.23 562.141C1896.21 562.168 1896.18 562.195 1896.15 562.222C1896.12 562.249 1896.1 562.276 1896.07 562.303C1896.04 562.33 1896.02 562.357 1895.99 562.384C1895.96 562.411 1895.94 562.438 1895.91 562.465C1895.88 562.492 1895.85 562.52 1895.83 562.547C1895.8 562.574 1895.77 562.601 1895.75 562.628C1895.72 562.655 1895.69 562.682 1895.67 562.709C1895.64 562.736 1895.61 562.763 1895.58 562.79C1895.56 562.817 1895.53 562.844 1895.5 562.871C1895.48 562.898 1895.45 562.925 1895.42 562.952C1895.39 562.979 1895.37 563.006 1895.34 563.033C1895.31 563.061 1895.29 563.088 1895.26 563.115C1895.23 563.142 1895.21 563.169 1895.18 563.196C1895.15 563.223 1895.12 563.25 1895.1 563.277C1895.07 563.304 1895.04 563.331 1895.02 563.358C1894.99 563.385 1894.96 563.413 1894.93 563.44C1894.91 563.467 1894.88 563.494 1894.85 563.521C1894.83 563.548 1894.8 563.575 1894.77 563.602C1894.74 563.629 1894.72 563.657 1894.69 563.684C1894.66 563.711 1894.64 563.738 1894.61 563.765C1894.58 563.792 1894.56 563.819 1894.53 563.846C1894.5 563.873 1894.47 563.901 1894.45 563.928C1894.42 563.955 1894.39 563.982 1894.37 564.009C1894.34 564.036 1894.31 564.063 1894.28 564.091C1894.26 564.118 1894.23 564.145 1894.2 564.172C1894.18 564.199 1894.15 564.226 1894.12 564.253C1894.09 564.281 1894.07 564.308 1894.04 564.335C1894.01 564.362 1893.99 564.389 1893.96 564.416C1893.93 564.444 1893.9 564.471 1893.88 564.498C1893.85 564.525 1893.82 564.552 1893.79 564.579C1893.77 564.607 1893.74 564.634 1893.71 564.661C1893.69 564.688 1893.66 564.715 1893.63 564.742C1893.6 564.77 1893.58 564.797 1893.55 564.824C1893.52 564.851 1893.5 564.878 1893.47 564.906C1893.44 564.933 1893.41 564.96 1893.39 564.987C1893.36 565.014 1893.33 565.042 1893.31 565.069C1893.28 565.096 1893.25 565.123 1893.22 565.151C1893.2 565.178 1893.17 565.205 1893.14 565.232C1893.11 565.259 1893.09 565.287 1893.06 565.314C1893.03 565.341 1893.01 565.368 1892.98 565.396C1892.95 565.423 1892.92 565.45 1892.9 565.477C1892.87 565.504 1892.84 565.532 1892.82 565.559C1892.79 565.586 1892.76 565.613 1892.73 565.641C1892.71 565.668 1892.68 565.695 1892.65 565.722C1892.62 565.75 1892.6 565.777 1892.57 565.804C1892.54 565.832 1892.52 565.859 1892.49 565.886C1892.46 565.913 1892.43 565.941 1892.41 565.968C1892.38 565.995 1892.35 566.022 1892.32 566.05C1892.3 566.077 1892.27 566.104 1892.24 566.132C1892.22 566.159 1892.19 566.186 1892.16 566.213C1892.13 566.241 1892.11 566.268 1892.08 566.295C1892.05 566.323 1892.02 566.35 1892 566.377C1891.97 566.404 1891.94 566.432 1891.92 566.459C1891.89 566.486 1891.86 566.514 1891.83 566.541C1891.81 566.568 1891.78 566.596 1891.75 566.623C1891.72 566.65 1891.7 566.678 1891.67 566.705C1891.64 566.732 1891.61 566.76 1891.59 566.787C1891.56 566.814 1891.53 566.842 1891.51 566.869C1891.48 566.896 1891.45 566.924 1891.42 566.951C1891.4 566.978 1891.37 567.006 1891.34 567.033C1891.31 567.06 1891.29 567.088 1891.26 567.115C1891.23 567.142 1891.2 567.17 1891.18 567.197C1891.15 567.224 1891.12 567.252 1891.1 567.279C1891.07 567.307 1891.04 567.334 1891.01 567.361C1890.99 567.389 1890.96 567.416 1890.93 567.443C1890.9 567.471 1890.88 567.498 1890.85 567.526C1890.82 567.553 1890.79 567.58 1890.77 567.608L1897.45 574.289ZM1937.26 534.474L1943.81 541.285C1956.85 528.751 1966.92 518.935 1973.99 511.858L1967.31 505.177L1960.63 498.495C1953.68 505.441 1943.72 515.157 1930.71 527.663L1937.26 534.474ZM1967.31 505.177L1971.54 496.726C1950.76 486.336 1928.54 482.79 1905.16 486.053L1906.46 495.411L1907.77 504.769C1927.45 502.022 1945.8 504.987 1963.09 513.628L1967.31 505.177ZM1906.46 495.411L1905.13 486.057C1881.93 489.371 1861.56 499.907 1844.19 517.276L1850.87 523.957L1857.55 530.638C1872.24 515.955 1888.93 507.46 1907.8 504.765L1906.46 495.411ZM2727.03 427.05H2736.48V417.601H2727.03V427.05ZM2713.51 660.679L2704.86 656.881L2704.82 656.97L2704.78 657.06L2713.51 660.679ZM2677.45 714.767L2670.77 708.086L2670.77 708.086L2677.45 714.767ZM2623.36 751.577L2627.06 760.273L2627.11 760.251L2627.16 760.229L2623.36 751.577ZM2481.38 746.318L2476.94 754.66L2477.01 754.697L2477.08 754.733L2481.38 746.318ZM2422.79 695.987L2430.39 690.376L2422.79 680.076L2415.18 690.375L2422.79 695.987ZM2364.19 746.318L2368.56 754.695L2368.59 754.678L2368.63 754.66L2364.19 746.318ZM2222.21 751.577L2218.41 760.229L2218.5 760.268L2218.59 760.305L2222.21 751.577ZM2168.12 714.767L2161.44 721.448L2161.44 721.448L2168.12 714.767ZM2131.31 660.679L2122.58 664.298L2122.62 664.388L2122.66 664.478L2131.31 660.679ZM2118.54 427.05V417.601H2109.09V427.05H2118.54ZM2186.15 427.05H2195.6V417.601H2186.15V427.05ZM2193.66 635.138L2184.89 638.647L2184.95 638.796L2185.01 638.943L2193.66 635.138ZM2215.45 668.191L2208.59 674.69L2208.76 674.875L2208.95 675.051L2215.45 668.191ZM2247.75 689.977L2243.81 698.566L2244.03 698.663L2244.24 698.75L2247.75 689.977ZM2327.38 689.977L2330.89 698.75L2331.04 698.69L2331.19 698.625L2327.38 689.977ZM2359.68 668.191L2366.36 674.873L2366.36 674.873L2359.68 668.191ZM2381.47 635.138L2372.82 631.332L2372.76 631.479L2372.7 631.629L2381.47 635.138ZM2389.73 427.05V417.601H2380.28V427.05H2389.73ZM2456.59 427.05H2466.04V417.601H2456.59V427.05ZM2464.1 635.138L2455.33 638.647L2455.39 638.796L2455.45 638.943L2464.1 635.138ZM2485.89 668.191L2479.03 674.69L2479.2 674.875L2479.39 675.051L2485.89 668.191ZM2518.19 689.977L2514.25 698.566L2514.47 698.663L2514.68 698.75L2518.19 689.977ZM2597.82 689.977L2601.33 698.75L2601.48 698.69L2601.63 698.625L2597.82 689.977ZM2630.12 668.191L2636.8 674.873L2636.8 674.873L2630.12 668.191ZM2651.91 635.138L2643.26 631.332L2643.19 631.479L2643.13 631.629L2651.91 635.138ZM2660.17 427.05V417.601H2650.72V427.05H2660.17ZM2727.03 427.05H2717.58V595.323H2727.03H2736.48V427.05H2727.03ZM2727.03 595.323H2717.58C2717.58 617.09 2713.33 637.578 2704.86 656.881L2713.51 660.679L2722.16 664.478C2731.71 642.714 2736.48 619.632 2736.48 595.323H2727.03ZM2713.51 660.679L2704.78 657.06C2696.73 676.463 2685.41 693.448 2670.77 708.086L2677.45 714.767L2684.13 721.448C2700.54 705.035 2713.25 685.962 2722.24 664.298L2713.51 660.679ZM2677.45 714.767L2670.77 708.086C2656.09 722.763 2639.04 734.372 2619.56 742.925L2623.36 751.577L2627.16 760.229C2648.74 750.752 2667.76 737.822 2684.13 721.448L2677.45 714.767ZM2623.36 751.577L2619.67 742.881C2600.89 750.859 2580.38 754.899 2558.01 754.899V764.348V773.796C2582.71 773.796 2605.76 769.323 2627.06 760.273L2623.36 751.577ZM2558.01 764.348V754.899C2531.89 754.899 2507.83 749.214 2485.68 737.903L2481.38 746.318L2477.08 754.733C2502.01 767.461 2529.03 773.796 2558.01 773.796V764.348ZM2481.38 746.318L2485.82 737.976C2463.5 726.105 2445.06 710.252 2430.39 690.376L2422.79 695.987L2415.18 701.598C2431.56 723.79 2452.18 741.491 2476.94 754.66L2481.38 746.318ZM2422.79 695.987L2415.18 690.375C2400.51 710.251 2382.07 726.105 2359.75 737.976L2364.19 746.318L2368.63 754.66C2393.39 741.491 2414.01 723.79 2430.39 701.598L2422.79 695.987ZM2364.19 746.318L2359.82 737.941C2338.24 749.202 2314.21 754.899 2287.57 754.899V764.348V773.796C2317.01 773.796 2344.07 767.474 2368.56 754.695L2364.19 746.318ZM2287.57 764.348V754.899C2265.72 754.899 2245.17 750.87 2225.83 742.849L2222.21 751.577L2218.59 760.305C2240.31 769.312 2263.33 773.796 2287.57 773.796V764.348ZM2222.21 751.577L2226.01 742.925C2206.53 734.372 2189.48 722.763 2174.8 708.086L2168.12 714.767L2161.44 721.448C2177.81 737.822 2196.83 750.752 2218.41 760.229L2222.21 751.577ZM2168.12 714.767L2174.8 708.086C2160.13 693.409 2148.52 676.363 2139.96 656.881L2131.31 660.679L2122.66 664.478C2132.14 686.063 2145.07 705.075 2161.44 721.448L2168.12 714.767ZM2131.31 660.679L2140.04 657.06C2132.02 637.716 2127.99 617.165 2127.99 595.323H2118.54H2109.09C2109.09 619.556 2113.58 642.576 2122.58 664.298L2131.31 660.679ZM2118.54 595.323H2127.99V427.05H2118.54H2109.09V595.323H2118.54ZM2118.54 427.05V436.498H2186.15V427.05V417.601H2118.54V427.05ZM2186.15 427.05H2176.7V595.323H2186.15H2195.6V427.05H2186.15ZM2186.15 595.323H2176.7C2176.7 610.499 2179.42 624.966 2184.89 638.647L2193.66 635.138L2202.44 631.629C2197.89 620.269 2195.6 608.193 2195.6 595.323H2186.15ZM2193.66 635.138L2185.01 638.943C2190.94 652.413 2198.8 664.352 2208.59 674.69L2215.45 668.191L2222.31 661.693C2214.07 653 2207.4 642.903 2202.31 631.332L2193.66 635.138ZM2215.45 668.191L2208.95 675.051C2219.23 684.785 2230.86 692.629 2243.81 698.566L2247.75 689.977L2251.69 681.387C2240.6 676.307 2230.7 669.627 2221.95 661.332L2215.45 668.191ZM2247.75 689.977L2244.24 698.75C2257.92 704.222 2272.39 706.938 2287.57 706.938V697.489V688.04C2274.7 688.04 2262.62 685.748 2251.26 681.204L2247.75 689.977ZM2287.57 697.489V706.938C2302.74 706.938 2317.21 704.222 2330.89 698.75L2327.38 689.977L2323.87 681.204C2312.51 685.748 2300.44 688.04 2287.57 688.04V697.489ZM2327.38 689.977L2331.19 698.625C2344.7 692.679 2356.46 684.774 2366.36 674.873L2359.68 668.191L2353 661.51C2344.87 669.638 2335.1 676.257 2323.58 681.328L2327.38 689.977ZM2359.68 668.191L2366.36 674.873C2376.79 664.45 2384.76 652.353 2390.24 638.647L2381.47 635.138L2372.7 631.629C2368.16 642.963 2361.61 652.902 2353 661.51L2359.68 668.191ZM2381.47 635.138L2390.12 638.943C2396.17 625.193 2399.18 610.622 2399.18 595.323H2389.73H2380.28C2380.28 608.07 2377.79 620.042 2372.82 631.332L2381.47 635.138ZM2389.73 595.323H2399.18V427.05H2389.73H2380.28V595.323H2389.73ZM2389.73 427.05V436.498H2456.59V427.05V417.601H2389.73V427.05ZM2456.59 427.05H2447.14V595.323H2456.59H2466.04V427.05H2456.59ZM2456.59 595.323H2447.14C2447.14 610.499 2449.86 624.966 2455.33 638.647L2464.1 635.138L2472.88 631.629C2468.33 620.269 2466.04 608.193 2466.04 595.323H2456.59ZM2464.1 635.138L2455.45 638.943C2461.38 652.413 2469.24 664.352 2479.03 674.69L2485.89 668.191L2492.75 661.693C2484.51 653 2477.84 642.903 2472.75 631.332L2464.1 635.138ZM2485.89 668.191L2479.39 675.051C2489.66 684.785 2501.3 692.629 2514.25 698.566L2518.19 689.977L2522.13 681.387C2511.04 676.307 2501.14 669.627 2492.39 661.332L2485.89 668.191ZM2518.19 689.977L2514.68 698.75C2528.36 704.222 2542.83 706.938 2558.01 706.938V697.489V688.04C2545.14 688.04 2533.06 685.748 2521.7 681.204L2518.19 689.977ZM2558.01 697.489V706.938C2573.18 706.938 2587.65 704.222 2601.33 698.75L2597.82 689.977L2594.31 681.204C2582.95 685.748 2570.87 688.04 2558.01 688.04V697.489ZM2597.82 689.977L2601.63 698.625C2615.14 692.679 2626.9 684.775 2636.8 674.873L2630.12 668.191L2623.44 661.51C2615.31 669.638 2605.54 676.257 2594.01 681.328L2597.82 689.977ZM2630.12 668.191L2636.8 674.873C2647.23 664.45 2655.2 652.353 2660.68 638.647L2651.91 635.138L2643.13 631.629C2638.6 642.963 2632.05 652.902 2623.44 661.51L2630.12 668.191ZM2651.91 635.138L2660.56 638.943C2666.61 625.193 2669.62 610.622 2669.62 595.323H2660.17H2650.72C2650.72 608.07 2648.23 620.042 2643.26 631.332L2651.91 635.138ZM2660.17 595.323H2669.62V427.05H2660.17H2650.72V595.323H2660.17ZM2660.17 427.05V436.498H2727.03V427.05V417.601H2660.17V427.05ZM3015.35 441.323L3011.47 449.939L3011.6 449.997L3011.73 450.051L3015.35 441.323ZM3068.68 477.382L3061.89 483.952L3062 484.064L3062.11 484.171L3068.68 477.382ZM3104.74 530.718L3096.01 534.337L3096.07 534.467L3096.12 534.596L3104.74 530.718ZM3104.74 661.43L3096.09 657.632L3096.05 657.721L3096.01 657.812L3104.74 661.43ZM3068.68 715.518L3062 708.837L3061.95 708.892L3061.89 708.948L3068.68 715.518ZM3015.35 752.328L3019.04 761.024L3019.09 761.002L3019.14 760.98L3015.35 752.328ZM2884.63 752.328L2880.83 760.98L2880.92 761.019L2881.01 761.056L2884.63 752.328ZM2830.55 715.518L2837.23 708.837L2837.23 708.837L2830.55 715.518ZM2793.74 661.43L2785.01 665.049L2785.04 665.14L2785.08 665.229L2793.74 661.43ZM2780.96 292.581V283.133H2771.52V292.581H2780.96ZM2847.82 292.581H2857.27V283.133H2847.82V292.581ZM2847.82 427.801H2838.37V437.25H2847.82V427.801ZM2989.05 690.728L2992.69 699.45L2992.77 699.414L2992.86 699.377L2989.05 690.728ZM3021.36 668.943L3028.04 675.624L3028.04 675.624L3021.36 668.943ZM3043.14 635.889L3034.49 632.084L3034.43 632.231L3034.37 632.38L3043.14 635.889ZM3043.14 557.011L3034.37 560.52L3034.45 560.736L3034.55 560.948L3043.14 557.011ZM3021.36 524.708L3014.5 531.207L3014.67 531.392L3014.86 531.568L3021.36 524.708ZM2989.05 502.923L2985.12 511.512L2985.33 511.609L2985.54 511.696L2989.05 502.923ZM2847.82 494.66V485.211H2838.37V494.66H2847.82ZM2855.34 635.889L2846.56 639.398L2846.62 639.547L2846.69 639.694L2855.34 635.889ZM2877.12 668.943L2870.26 675.441L2870.44 675.626L2870.62 675.802L2877.12 668.943ZM2910.17 690.728L2906.37 699.377L2906.52 699.441L2906.67 699.501L2910.17 690.728ZM2949.99 427.801V437.25C2972.29 437.25 2992.74 441.512 3011.47 449.939L3015.35 441.323L3019.22 432.707C2997.89 423.105 2974.77 418.352 2949.99 418.352V427.801ZM3015.35 441.323L3011.73 450.051C3031.1 458.085 3047.79 469.383 3061.89 483.952L3068.68 477.382L3075.47 470.811C3059.52 454.33 3040.66 441.589 3018.96 432.595L3015.35 441.323ZM3068.68 477.382L3062.11 484.171C3076.68 498.271 3087.98 514.962 3096.01 534.337L3104.74 530.718L3113.47 527.099C3104.47 505.408 3091.73 486.541 3075.25 470.592L3068.68 477.382ZM3104.74 530.718L3096.12 534.596C3104.55 553.324 3108.81 573.776 3108.81 596.074H3118.26H3127.71C3127.71 571.296 3122.96 548.178 3113.36 526.841L3104.74 530.718ZM3118.26 596.074H3108.81C3108.81 617.841 3104.56 638.329 3096.09 657.632L3104.74 661.43L3113.39 665.229C3122.95 643.465 3127.71 620.383 3127.71 596.074H3118.26ZM3104.74 661.43L3096.01 657.812C3087.97 677.214 3076.64 694.2 3062 708.837L3068.68 715.518L3075.36 722.2C3091.78 705.787 3104.49 686.713 3113.47 665.049L3104.74 661.43ZM3068.68 715.518L3061.89 708.948C3047.75 723.558 3031 735.136 3011.55 743.677L3015.35 752.328L3019.14 760.98C3040.76 751.491 3059.56 738.529 3075.47 722.089L3068.68 715.518ZM3015.35 752.328L3011.65 743.632C2992.88 751.61 2972.36 755.65 2949.99 755.65V765.099V774.548C2974.69 774.548 2997.75 770.074 3019.04 761.024L3015.35 752.328ZM2949.99 765.099V755.65C2928.15 755.65 2907.6 751.621 2888.25 743.6L2884.63 752.328L2881.01 761.056C2902.74 770.063 2925.76 774.548 2949.99 774.548V765.099ZM2884.63 752.328L2888.43 743.677C2868.95 735.124 2851.9 723.514 2837.23 708.837L2830.55 715.518L2823.86 722.2C2840.24 738.573 2859.25 751.503 2880.83 760.98L2884.63 752.328ZM2830.55 715.518L2837.23 708.837C2822.55 694.16 2810.94 677.114 2802.39 657.632L2793.74 661.43L2785.08 665.229C2794.56 686.814 2807.49 705.826 2823.86 722.2L2830.55 715.518ZM2793.74 661.43L2802.46 657.812C2794.44 638.467 2790.41 617.916 2790.41 596.074H2780.96H2771.52C2771.52 620.308 2776 643.327 2785.01 665.049L2793.74 661.43ZM2780.96 596.074H2790.41V292.581H2780.96H2771.52V596.074H2780.96ZM2780.96 292.581V302.03H2847.82V292.581V283.133H2780.96V292.581ZM2847.82 292.581H2838.37V427.801H2847.82H2857.27V292.581H2847.82ZM2847.82 427.801V437.25H2949.99V427.801V418.352H2847.82V427.801ZM2949.99 698.24V707.689C2965.16 707.689 2979.43 704.974 2992.69 699.45L2989.05 690.728L2985.42 682.006C2974.64 686.499 2962.86 688.792 2949.99 688.792V698.24ZM2989.05 690.728L2992.86 699.377C3006.37 693.431 3018.13 685.526 3028.04 675.624L3021.36 668.943L3014.67 662.261C3006.55 670.389 2996.77 677.008 2985.25 682.08L2989.05 690.728ZM3021.36 668.943L3028.04 675.624C3038.46 665.202 3046.43 653.104 3051.91 639.398L3043.14 635.889L3034.37 632.38C3029.83 643.715 3023.28 653.653 3014.67 662.261L3021.36 668.943ZM3043.14 635.889L3051.79 639.694C3057.84 625.944 3060.85 611.373 3060.85 596.074H3051.4H3041.96C3041.96 608.821 3039.46 620.793 3034.49 632.084L3043.14 635.889ZM3051.4 596.074H3060.85C3060.85 580.777 3057.84 566.403 3051.73 553.074L3043.14 557.011L3034.55 560.948C3039.46 571.658 3041.96 583.326 3041.96 596.074H3051.4ZM3043.14 557.011L3051.91 553.502C3046.41 539.751 3038.39 527.83 3027.85 517.849L3021.36 524.708L3014.86 531.568C3023.35 539.616 3029.85 549.23 3034.37 560.52L3043.14 557.011ZM3021.36 524.708L3028.21 518.21C3018.23 507.674 3006.31 499.65 2992.56 494.15L2989.05 502.923L2985.54 511.696C2996.83 516.212 3006.45 522.712 3014.5 531.207L3021.36 524.708ZM2989.05 502.923L2992.99 494.334C2979.66 488.225 2965.29 485.211 2949.99 485.211V494.66V504.108C2962.74 504.108 2974.41 506.604 2985.12 511.512L2989.05 502.923ZM2949.99 494.66V485.211H2847.82V494.66V504.108H2949.99V494.66ZM2847.82 494.66H2838.37V596.074H2847.82H2857.27V494.66H2847.82ZM2847.82 596.074H2838.37C2838.37 611.25 2841.09 625.717 2846.56 639.398L2855.34 635.889L2864.11 632.38C2859.56 621.02 2857.27 608.944 2857.27 596.074H2847.82ZM2855.34 635.889L2846.69 639.694C2852.61 653.165 2860.47 665.103 2870.26 675.441L2877.12 668.943L2883.98 662.444C2875.74 653.751 2869.07 643.654 2863.98 632.084L2855.34 635.889ZM2877.12 668.943L2870.62 675.802C2880.96 685.596 2892.9 693.45 2906.37 699.377L2910.17 690.728L2913.98 682.08C2902.41 676.989 2892.31 670.319 2883.62 662.083L2877.12 668.943ZM2910.17 690.728L2906.67 699.501C2920.35 704.973 2934.81 707.689 2949.99 707.689V698.24V688.792C2937.12 688.792 2925.04 686.499 2913.68 681.955L2910.17 690.728ZM3169.03 426.299V416.85H3159.59V426.299H3169.03ZM3235.14 426.299H3244.59V416.85H3235.14V426.299ZM3235.14 763.596V773.045H3244.59V763.596H3235.14ZM3169.03 763.596H3159.59V773.045H3169.03V763.596ZM3169.03 426.299V435.747H3235.14V426.299V416.85H3169.03V426.299ZM3235.14 426.299H3225.69V763.596H3235.14H3244.59V426.299H3235.14ZM3235.14 763.596V754.148H3169.03V763.596V773.045H3235.14V763.596ZM3169.03 763.596H3178.48V426.299H3169.03H3159.59V763.596H3169.03Z" fill="white" mask="url(#path-1-outside-1_371_197)"/>
<circle cx="3348.67" cy="718.473" r="61.4164" fill="white" stroke="white" stroke-width="9.44867"/>
<rect y="20.7051" width="1046.59" height="1046.59" rx="245.294" fill="#5B50FF"/>
<mask id="path-5-outside-2_371_197" maskUnits="userSpaceOnUse" x="293.957" y="367.414" width="438" height="329" fill="black">
<rect fill="white" x="293.957" y="367.414" width="438" height="329"/>
<path d="M302.957 531.829C302.957 510.162 306.875 490.109 314.712 471.669C323.01 452.768 334.074 436.403 347.904 422.573C362.195 408.282 378.79 397.219 397.691 389.382C416.592 381.084 436.645 376.935 457.851 376.935C479.518 376.935 499.571 381.084 518.011 389.382C536.911 397.219 553.507 408.282 567.798 422.573C582.089 436.403 593.153 452.768 600.989 471.669C609.287 490.109 613.436 510.162 613.436 531.829V687.414H551.894V531.829C551.894 518.921 549.358 506.935 544.287 495.871C539.677 484.346 532.993 474.435 524.234 466.137C515.936 457.378 506.025 450.694 494.5 446.084C482.975 441.013 470.759 438.477 457.851 438.477C444.943 438.477 432.727 441.013 421.202 446.084C410.138 450.694 400.227 457.378 391.468 466.137C383.17 474.435 376.486 484.346 371.415 495.871C366.805 506.935 364.5 518.921 364.5 531.829V687.414H302.957V531.829ZM662.197 376.243H723.048V686.723H662.197V376.243Z"/>
</mask>
<path d="M302.957 531.829C302.957 510.162 306.875 490.109 314.712 471.669C323.01 452.768 334.074 436.403 347.904 422.573C362.195 408.282 378.79 397.219 397.691 389.382C416.592 381.084 436.645 376.935 457.851 376.935C479.518 376.935 499.571 381.084 518.011 389.382C536.911 397.219 553.507 408.282 567.798 422.573C582.089 436.403 593.153 452.768 600.989 471.669C609.287 490.109 613.436 510.162 613.436 531.829V687.414H551.894V531.829C551.894 518.921 549.358 506.935 544.287 495.871C539.677 484.346 532.993 474.435 524.234 466.137C515.936 457.378 506.025 450.694 494.5 446.084C482.975 441.013 470.759 438.477 457.851 438.477C444.943 438.477 432.727 441.013 421.202 446.084C410.138 450.694 400.227 457.378 391.468 466.137C383.17 474.435 376.486 484.346 371.415 495.871C366.805 506.935 364.5 518.921 364.5 531.829V687.414H302.957V531.829ZM662.197 376.243H723.048V686.723H662.197V376.243Z" fill="white"/>
<path d="M314.712 471.669L306.749 468.173L306.728 468.22L306.708 468.267L314.712 471.669ZM347.904 422.573L354.054 428.723L354.054 428.723L347.904 422.573ZM397.691 389.382L401.022 397.416L401.105 397.381L401.188 397.345L397.691 389.382ZM518.011 389.382L514.441 397.313L514.56 397.366L514.679 397.416L518.011 389.382ZM567.798 422.573L561.648 428.723L561.698 428.774L561.75 428.823L567.798 422.573ZM600.989 471.669L592.955 475L593.005 475.12L593.058 475.238L600.989 471.669ZM613.436 687.414V696.111H622.134V687.414H613.436ZM551.894 687.414H543.196V696.111H551.894V687.414ZM544.287 495.871L536.212 499.101L536.291 499.3L536.381 499.495L544.287 495.871ZM524.234 466.137L517.92 472.119L518.082 472.289L518.252 472.451L524.234 466.137ZM494.5 446.084L490.997 454.045L491.132 454.104L491.27 454.159L494.5 446.084ZM421.202 446.084L424.547 454.112L424.626 454.079L424.705 454.045L421.202 446.084ZM391.468 466.137L385.318 459.987L385.318 459.987L391.468 466.137ZM371.415 495.871L363.454 492.368L363.419 492.447L363.386 492.526L371.415 495.871ZM364.5 687.414V696.111H373.197V687.414H364.5ZM302.957 687.414H294.26V696.111H302.957V687.414ZM302.957 531.829H311.654C311.654 511.235 315.373 492.35 322.717 475.071L314.712 471.669L306.708 468.267C298.378 487.868 294.26 509.089 294.26 531.829H302.957ZM314.712 471.669L322.676 475.165C330.564 457.199 341.03 441.747 354.054 428.723L347.904 422.573L341.754 416.423C327.118 431.059 315.457 448.338 306.749 468.173L314.712 471.669ZM347.904 422.573L354.054 428.723C367.528 415.249 383.162 404.821 401.022 397.416L397.691 389.382L394.36 381.347C374.419 389.616 356.862 401.315 341.754 416.423L347.904 422.573ZM397.691 389.382L401.188 397.345C418.956 389.545 437.815 385.632 457.851 385.632V376.935V368.237C435.475 368.237 414.228 372.623 394.195 381.418L397.691 389.382ZM457.851 376.935V385.632C478.377 385.632 497.203 389.555 514.441 397.313L518.011 389.382L521.58 381.45C501.939 372.612 480.659 368.237 457.851 368.237V376.935ZM518.011 389.382L514.679 397.416C532.539 404.821 548.174 415.249 561.648 428.723L567.798 422.573L573.948 416.423C558.84 401.315 541.283 389.616 521.342 381.347L518.011 389.382ZM567.798 422.573L561.75 428.823C575.161 441.802 585.56 457.165 592.955 475L600.989 471.669L609.024 468.338C600.745 448.371 589.017 431.004 573.846 416.323L567.798 422.573ZM600.989 471.669L593.058 475.238C600.816 492.477 604.739 511.303 604.739 531.829H613.436H622.134C622.134 509.021 617.759 487.741 608.921 468.1L600.989 471.669ZM613.436 531.829H604.739V687.414H613.436H622.134V531.829H613.436ZM613.436 687.414V678.717H551.894V687.414V696.111H613.436V687.414ZM551.894 687.414H560.591V531.829H551.894H543.196V687.414H551.894ZM551.894 531.829H560.591C560.591 517.747 557.817 504.516 552.194 492.247L544.287 495.871L536.381 499.495C540.899 509.354 543.196 520.094 543.196 531.829H551.894ZM544.287 495.871L552.363 492.641C547.3 479.984 539.914 469.011 530.216 459.823L524.234 466.137L518.252 472.451C526.072 479.859 532.055 488.709 536.212 499.101L544.287 495.871ZM524.234 466.137L530.548 460.155C521.36 450.457 510.387 443.071 497.73 438.009L494.5 446.084L491.27 454.159C501.662 458.316 510.512 464.299 517.92 472.119L524.234 466.137ZM494.5 446.084L498.003 438.123C485.346 432.554 471.934 429.78 457.851 429.78V438.477V447.175C469.584 447.175 480.604 449.472 490.997 454.045L494.5 446.084ZM457.851 438.477V429.78C443.768 429.78 430.356 432.554 417.699 438.123L421.202 446.084L424.705 454.045C435.097 449.472 446.118 447.175 457.851 447.175V438.477ZM421.202 446.084L417.857 438.055C405.709 443.117 394.853 450.452 385.318 459.987L391.468 466.137L397.618 472.287C405.601 464.304 414.567 458.271 424.547 454.112L421.202 446.084ZM391.468 466.137L385.318 459.987C376.203 469.102 368.927 479.929 363.454 492.368L371.415 495.871L379.375 499.374C384.044 488.764 390.137 479.768 397.618 472.287L391.468 466.137ZM371.415 495.871L363.386 492.526C358.302 504.729 355.802 517.862 355.802 531.829H364.5H373.197C373.197 519.98 375.308 509.141 379.443 499.216L371.415 495.871ZM364.5 531.829H355.802V687.414H364.5H373.197V531.829H364.5ZM364.5 687.414V678.717H302.957V687.414V696.111H364.5V687.414ZM302.957 687.414H311.654V531.829H302.957H294.26V687.414H302.957ZM662.197 376.243V367.546H653.5V376.243H662.197ZM723.048 376.243H731.746V367.546H723.048V376.243ZM723.048 686.723V695.42H731.746V686.723H723.048ZM662.197 686.723H653.5V695.42H662.197V686.723ZM662.197 376.243V384.941H723.048V376.243V367.546H662.197V376.243ZM723.048 376.243H714.351V686.723H723.048H731.746V376.243H723.048ZM723.048 686.723V678.025H662.197V686.723V695.42H723.048V686.723ZM662.197 686.723H670.895V376.243H662.197H653.5V686.723H662.197Z" fill="white" mask="url(#path-5-outside-2_371_197)"/>
</g>
<defs>
<clipPath id="clip0_371_197">
<rect width="3840" height="1087.25" fill="white" transform="translate(0 0.376953)"/>
</clipPath>
</defs>
</svg>
